<svg xmlns="http://www.w3.org/2000/svg"  viewBox="0 0 50 50" width="50px" height="50px">
    <path fill="none" stroke-linecap="round" stroke-miterlimit="10" stroke-width="2" d="M9,49c-1.1,0-2-0.9-2-2V23	c0-1.1,0.9-2,2-2h32c1.1,0,2,0.9,2,2v24c0,1.1-0.9,2-2,2H9z"/>
    <path fill="none" stroke-linecap="round" stroke-miterlimit="10" stroke-width="2" d="M36,21c0,0,0-4.9,0-6	c0-6.1-4.9-11-11-11S14,8.9,14,15c0,1.1,0,6,0,6"/>
    <path fill="none" d="M28,33c0-1.7-1.3-3-3-3s-3,1.3-3,3c0,0.9,0.4,1.7,1,2.2V38c0,1.1,0.9,2,2,2s2-0.9,2-2v-2.8C27.6,34.7,28,33.9,28,33z"/>
</svg>
